<svg height="511pt" viewBox="0 -149 511.98933 511" width="511pt" xmlns="http://www.w3.org/2000/svg"><path d="m287.984375 85.8125c-2.773437 0-5.503906-1.089844-7.550781-3.113281l-58.902344-58.902344-142.679688 61.160156c-4.007812 1.6875-8.660156.8125-11.730468-2.257812l-64-64c-4.160156-4.160157-4.160156-10.925781 0-15.085938 4.160156-4.160156 10.921875-4.160156 15.082031 0l58.902344 58.902344 142.695312-61.164063c4.011719-1.640624 8.664063-.808593 11.734375 2.261719l58.902344 58.902344 142.699219-61.164063c4.011719-1.640624 8.640625-.808593 11.734375 2.261719l64 64c4.160156 4.160157 4.160156 10.925781 0 15.085938-4.160156 4.15625-10.925782 4.15625-15.085938 0l-58.898437-58.902344-142.699219 61.160156c-1.367188.554688-2.796875.855469-4.203125.855469zm0 0"/><path d="m287.984375 213.8125c-2.773437 0-5.503906-1.089844-7.550781-3.113281l-58.902344-58.902344-142.679688 61.160156c-4.007812 1.664063-8.660156.8125-11.730468-2.257812l-64-64c-4.160156-4.160157-4.160156-10.925781 0-15.085938 4.160156-4.160156 10.921875-4.160156 15.082031 0l58.902344 58.902344 142.695312-61.164063c4.011719-1.640624 8.664063-.832031 11.734375 2.261719l58.902344 58.902344 142.699219-61.164063c4.011719-1.640624 8.640625-.832031 11.734375 2.261719l64 64c4.160156 4.160157 4.160156 10.925781 0 15.085938-4.160156 4.15625-10.925782 4.15625-15.085938 0l-58.898437-58.902344-142.699219 61.160156c-1.367188.554688-2.796875.855469-4.203125.855469zm0 0"/></svg>