<svg height="512pt" viewBox="-11 0 512 512" width="512pt" xmlns="http://www.w3.org/2000/svg"><path d="m245.332031 512c-5.886719 0-10.664062-4.777344-10.664062-10.667969v-384c0-5.886719 4.777343-10.664062 10.664062-10.664062 5.890625 0 10.667969 4.777343 10.667969 10.664062v384c0 5.890625-4.777344 10.667969-10.667969 10.667969zm0 0"/><path d="m128 256c-70.59375 0-128-57.40625-128-128s57.40625-128 128-128 128 57.40625 128 128c0 5.886719-4.777344 10.667969-10.667969 10.667969-5.886719 0-10.664062-4.78125-10.664062-10.667969 0-58.816406-47.851563-106.667969-106.667969-106.667969s-106.667969 47.851563-106.667969 106.667969 47.851563 106.667969 106.667969 106.667969c5.886719 0 10.667969 4.777343 10.667969 10.664062 0 5.890625-4.78125 10.667969-10.667969 10.667969zm0 0"/><path d="m362.667969 256c-5.890625 0-10.667969-4.777344-10.667969-10.667969 0-5.886719 4.777344-10.664062 10.667969-10.664062 58.816406 0 106.664062-47.851563 106.664062-106.667969s-47.847656-106.667969-106.664062-106.667969c-58.816407 0-106.667969 47.851563-106.667969 106.667969 0 5.886719-4.777344 10.667969-10.667969 10.667969-5.886719 0-10.664062-4.78125-10.664062-10.667969 0-70.59375 57.40625-128 128-128 70.589843 0 128 57.40625 128 128s-57.410157 128-128 128zm0 0"/></svg>