<svg height="512pt" viewBox="0 -64 512.02764 512" width="512pt" xmlns="http://www.w3.org/2000/svg"><path d="m96.015625 234.679688c-52.929687 0-96-43.070313-96-96 0-52.925782 43.070313-96 96-96 52.925781 0 96 43.074218 96 96 0 52.929687-43.074219 96-96 96zm0-170.664063c-41.175781 0-74.667969 33.492187-74.667969 74.664063 0 41.175781 33.492188 74.667968 74.667969 74.667968 41.171875 0 74.664063-33.492187 74.664063-74.667968 0-41.171876-33.492188-74.664063-74.664063-74.664063zm0 0"/><path d="m416.015625 341.347656c-52.929687 0-96-43.074218-96-96 0-52.929687 43.070313-96 96-96 52.925781 0 96 43.070313 96 96 0 52.925782-43.074219 96-96 96zm0-170.667968c-41.175781 0-74.667969 33.492187-74.667969 74.667968 0 41.171875 33.492188 74.667969 74.667969 74.667969 41.171875 0 74.664063-33.496094 74.664063-74.667969 0-41.175781-33.492188-74.667968-74.664063-74.667968zm0 0"/><path d="m501.347656 104.546875c-2.261718 0-4.542968-.703125-6.484375-2.195313-69.484375-52.992187-152.085937-81.003906-238.847656-81.003906-67.585937 0-134.296875 17.363282-192.875 50.261719-5.164063 2.878906-11.648437 1.066406-14.550781-4.074219-2.859375-5.144531-1.023438-11.648437 4.097656-14.53125 61.78125-34.664062 132.074219-52.988281 203.328125-52.988281 91.496094 0 178.558594 29.523437 251.816406 85.394531 4.671875 3.5625 5.589844 10.261719 2.003907 14.957032-2.109376 2.75-5.289063 4.179687-8.488282 4.179687zm0 0"/><path d="m256.015625 384.015625c-91.5 0-178.5625-29.527344-251.820313-85.398437-4.671874-3.5625-5.589843-10.261719-2.003906-14.957032 3.582032-4.691406 10.28125-5.566406 14.953125-2.003906 69.503907 53.011719 152.105469 81.023438 238.871094 81.023438 67.582031 0 134.292969-17.363282 192.871094-50.238282 5.1875-2.902344 11.648437-1.066406 14.550781 4.050782 2.878906 5.144531 1.046875 11.648437-4.074219 14.550781-61.804687 34.644531-132.097656 52.972656-203.347656 52.972656zm0 0"/></svg>