<svg height="448pt" viewBox="-32 0 448 448" width="448pt" xmlns="http://www.w3.org/2000/svg"><path d="m224 96c-5.886719 0-10.667969-4.777344-10.667969-10.667969 0-35.285156-28.714843-64-64-64-35.285156 0-64 28.714844-64 64 0 5.890625-4.777343 10.667969-10.664062 10.667969-5.890625 0-10.667969-4.777344-10.667969-10.667969 0-47.058593 38.273438-85.332031 85.332031-85.332031 47.0625 0 85.335938 38.273438 85.335938 85.332031 0 5.890625-4.78125 10.667969-10.667969 10.667969zm0 0"/><path d="m74.667969 341.332031c-5.890625 0-10.667969-4.777343-10.667969-10.664062v-245.335938c0-5.886719 4.777344-10.664062 10.667969-10.664062 5.886719 0 10.664062 4.777343 10.664062 10.664062v245.335938c0 5.886719-4.777343 10.664062-10.664062 10.664062zm0 0"/><path d="m74.667969 96c-5.890625 0-10.667969-4.777344-10.667969-10.667969 0-35.453125-29.183594-64-53.332031-64-5.890625 0-10.667969-4.777343-10.667969-10.664062 0-5.890625 4.777344-10.667969 10.667969-10.667969 35.242187 0 74.664062 36.5 74.664062 85.332031 0 5.890625-4.777343 10.667969-10.664062 10.667969zm0 0"/><path d="m298.667969 384c-47.0625 0-85.335938-38.273438-85.335938-85.332031 0-47.0625 38.273438-85.335938 85.335938-85.335938 47.058593 0 85.332031 38.273438 85.332031 85.335938 0 47.058593-38.273438 85.332031-85.332031 85.332031zm0-149.332031c-35.285157 0-64 28.714843-64 64 0 35.285156 28.714843 64 64 64 35.285156 0 64-28.714844 64-64 0-35.285157-28.714844-64-64-64zm0 0"/><path d="m149.332031 448h-10.664062c-5.890625 0-10.667969-4.777344-10.667969-10.667969 0-5.886719 4.777344-10.664062 10.667969-10.664062h10.664062c35.285157 0 64-28.714844 64-64v-277.335938c0-5.886719 4.78125-10.664062 10.667969-10.664062s10.667969 4.777343 10.667969 10.664062v277.335938c0 47.058593-38.273438 85.332031-85.335938 85.332031zm0 0"/></svg>