<?xml version="1.0" encoding="utf-8"?>
<!-- Generator: Adobe Illustrator 23.0.6, SVG Export Plug-In . SVG Version: 6.00 Build 0)  -->
<svg version="1.1" id="Layer_1" xmlns="http://www.w3.org/2000/svg" xmlns:xlink="http://www.w3.org/1999/xlink" x="0px" y="0px"
	 viewBox="0 0 1920 1080" style="enable-background:new 0 0 1920 1080;" xml:space="preserve">
<style type="text/css">
	.st0{stroke:#000000;stroke-width:20;stroke-miterlimit:10;}
</style>
<path class="st0" d="M713.4,292.9L713.4,292.9c5.9-5.9,15.4-5.9,21.2,0l472,472c5.9,5.9,5.9,15.4,0,21.2v0c-5.9,5.9-15.4,5.9-21.2,0
	l-472-472C707.5,308.2,707.5,298.7,713.4,292.9z"/>
<path class="st0" d="M713.3,786.2L713.3,786.2c-5.9-5.9-5.9-15.4,0-21.2l472.1-472.1c5.9-5.9,15.4-5.9,21.2,0v0
	c5.9,5.9,5.9,15.4,0,21.2L734.5,786.2C728.7,792,719.2,792,713.3,786.2z"/>
</svg>
