<svg height="512pt" viewBox="0 0 512 512" width="512pt" xmlns="http://www.w3.org/2000/svg"><path d="m138.667969 512c-76.460938 0-138.667969-62.207031-138.667969-138.667969 0-76.457031 62.207031-138.664062 138.667969-138.664062 76.457031 0 138.664062 62.207031 138.664062 138.664062 0 76.460938-62.207031 138.667969-138.664062 138.667969zm0-256c-64.683594 0-117.335938 52.652344-117.335938 117.332031 0 64.683594 52.652344 117.335938 117.335938 117.335938 64.679687 0 117.332031-52.652344 117.332031-117.335938 0-64.679687-52.652344-117.332031-117.332031-117.332031zm0 0"/><path d="m435.308594 237.054688c-2.050782 0-4.097656-.574219-5.933594-1.789063-4.882812-3.285156-6.207031-9.898437-2.921875-14.808594 14.082031-21.054687 21.546875-45.652343 21.546875-71.125 0-70.589843-57.40625-128-128-128s-128 57.410157-128 128c0 20.523438 4.734375 40.171875 14.039062 58.347657 2.6875 5.25.59375 11.667968-4.652343 14.359374-5.164063 2.707032-11.648438.636719-14.355469-4.632812-10.691406-20.925781-16.363281-44.457031-16.363281-68.074219 0-82.34375 67.007812-149.332031 149.332031-149.332031s149.332031 66.988281 149.332031 149.332031c0 29.71875-8.703125 58.410157-25.171875 82.988281-2.027344 3.070313-5.417968 4.734376-8.851562 4.734376zm0 0"/><path d="m416 512c-52.929688 0-96-43.070312-96-96 0-18.988281 5.523438-37.3125 16-53.054688 3.242188-4.90625 9.855469-6.210937 14.785156-2.964843 4.882813 3.242187 6.226563 9.875 2.964844 14.78125-8.128906 12.226562-12.417969 26.496093-12.417969 41.238281 0 41.171875 33.496094 74.667969 74.667969 74.667969s74.667969-33.496094 74.667969-74.667969c0-5.886719 4.777343-10.667969 10.664062-10.667969 5.890625 0 10.667969 4.78125 10.667969 10.667969 0 52.929688-43.070312 96-96 96zm0 0"/><path d="m252.542969 325.523438c-3.773438 0-7.421875-2.003907-9.34375-5.542969l-55.957031-102.273438c-2.835938-5.183593-.960938-11.648437 4.222656-14.484375 5.121094-2.816406 11.648437-.941406 14.488281 4.222656l55.957031 102.273438c2.835938 5.160156.9375 11.648438-4.226562 14.484375-1.640625.894531-3.390625 1.320313-5.140625 1.320313zm0 0"/><path d="m344.875 379.519531c-1.964844 0-3.945312-.53125-5.71875-1.664062-4.96875-3.136719-6.464844-9.75-3.285156-14.699219l90.433594-142.484375c3.15625-4.96875 9.769531-6.421875 14.699218-3.285156 4.96875 3.15625 6.460938 9.75 3.285156 14.71875l-90.433593 142.464843c-2.003907 3.199219-5.460938 4.949219-8.980469 4.949219zm0 0"/></svg>