<svg height="512pt" viewBox="0 -64 512 512" width="512pt" xmlns="http://www.w3.org/2000/svg"><path d="m182.144531 277.375c-1.964843 0-3.925781-.511719-5.695312-1.640625-43.691407-27.542969-69.78125-74.796875-69.78125-126.402344 0-82.34375 67.007812-149.332031 149.332031-149.332031s149.332031 66.988281 149.332031 149.332031c0 51.5625-26.066406 98.796875-69.714843 126.359375-4.886719 3.070313-11.585938 1.683594-14.699219-3.328125-3.136719-4.972656-1.644531-11.5625 3.328125-14.699219 37.417968-23.636718 59.753906-64.128906 59.753906-108.332031 0-70.589843-57.40625-128-128-128s-128 57.410157-128 128c0 44.226563 22.378906 84.738281 59.839844 108.351563 4.972656 3.136718 6.484375 9.730468 3.328125 14.699218-2.027344 3.222657-5.484375 4.992188-9.023438 4.992188zm0 0"/><path d="m501.332031 384h-490.664062c-5.890625 0-10.667969-4.777344-10.667969-10.667969 0-5.886719 4.777344-10.664062 10.667969-10.664062h490.664062c5.890625 0 10.667969 4.777343 10.667969 10.664062 0 5.890625-4.777344 10.667969-10.667969 10.667969zm0 0"/><path d="m501.332031 277.332031h-171.410156c-5.890625 0-10.667969-4.777343-10.667969-10.664062 0-5.890625 4.777344-10.667969 10.667969-10.667969h171.410156c5.890625 0 10.667969 4.777344 10.667969 10.667969 0 5.886719-4.777344 10.664062-10.667969 10.664062zm0 0"/><path d="m182.101562 277.332031h-171.433593c-5.890625 0-10.667969-4.777343-10.667969-10.664062 0-5.890625 4.777344-10.667969 10.667969-10.667969h171.433593c5.886719 0 10.667969 4.777344 10.667969 10.667969 0 5.886719-4.78125 10.664062-10.667969 10.664062zm0 0"/></svg>