<svg height="490pt" viewBox="-101 0 490 490.66455" width="490pt" xmlns="http://www.w3.org/2000/svg"><path d="m261.5625 255.996094h-234.667969c-5.886719 0-10.667969-4.777344-10.667969-10.664063 0-5.890625 4.78125-10.667969 10.667969-10.667969h234.667969c5.886719 0 10.664062 4.777344 10.664062 10.667969 0 5.886719-4.777343 10.664063-10.664062 10.664063zm0 0"/><path d="m277.433594 490.664062c-3.820313 0-7.53125-2.070312-9.429688-5.675781-39.679687-74.878906-59.777344-155.519531-59.777344-239.65625 0-84.054687 20.117188-164.714843 59.796876-239.660156 2.753906-5.183594 9.195312-7.1875 14.421874-4.4375 5.207032 2.773437 7.191407 9.238281 4.4375 14.445313-38.035156 71.828124-57.320312 149.117187-57.320312 229.652343 0 80.617188 19.261719 157.886719 57.277344 229.675781 2.753906 5.203126.769531 11.667969-4.4375 14.417969-1.597656.832031-3.304688 1.238281-4.96875 1.238281zm0 0"/><path d="m11.023438 490.664062c-1.6875 0-3.394532-.40625-4.972657-1.257812-5.203125-2.753906-7.1875-9.214844-4.4375-14.421875 38.015625-71.765625 57.28125-149.035156 57.28125-229.652344 0-80.535156-19.285156-157.824219-57.324219-229.675781-2.75-5.203125-.765624-11.648438 4.4375-14.421875 5.226563-2.75 11.648438-.746094 14.421876 4.4375 39.679687 74.945313 59.796874 155.605469 59.796874 239.660156 0 84.136719-20.09375 164.777344-59.753906 239.65625-1.917968 3.605469-5.609375 5.675781-9.449218 5.675781zm0 0"/></svg>