<svg height="512pt" viewBox="0 0 512.00533 512" width="512pt" xmlns="http://www.w3.org/2000/svg"><path d="m501.339844 277.335938c-5.890625 0-10.667969-4.777344-10.667969-10.667969v-234.664063c0-5.867187-4.777344-10.667968-10.667969-10.667968h-234.664062c-5.890625 0-10.667969-4.777344-10.667969-10.667969 0-5.886719 4.777344-10.66406275 10.667969-10.66406275h234.664062c17.644532 0 32 14.35546875 32 31.99999975v234.664063c0 5.890625-4.777344 10.667969-10.664062 10.667969zm0 0"/><path d="m10.671875 512.003906c-2.730469 0-5.460937-1.046875-7.550781-3.117187-4.160156-4.160157-4.160156-10.921875 0-15.082031l481.300781-481.300782c4.160156-4.160156 10.921875-4.160156 15.082031 0s4.160156 10.921875 0 15.082032l-481.28125 481.300781c-2.089844 2.070312-4.820312 3.117187-7.550781 3.117187zm0 0"/><path d="m288.003906 426.667969c-2.730468 0-5.460937-1.042969-7.550781-3.113281l-192-192c-4.160156-4.160157-4.160156-10.921876 0-15.082032s10.921875-4.160156 15.082031 0l192 192c4.160156 4.160156 4.160156 10.921875 0 15.082032-2.070312 2.070312-4.800781 3.113281-7.53125 3.113281zm0 0"/></svg>