<svg height="512pt" viewBox="0 -64 512 512" width="512pt" xmlns="http://www.w3.org/2000/svg"><path d="m224 96c-5.886719 0-10.667969-4.777344-10.667969-10.667969 0-35.285156-28.714843-64-64-64-35.285156 0-64 28.714844-64 64 0 5.890625-4.777343 10.667969-10.664062 10.667969-5.890625 0-10.667969-4.777344-10.667969-10.667969 0-47.058593 38.273438-85.332031 85.332031-85.332031 47.0625 0 85.335938 38.273438 85.335938 85.332031 0 5.890625-4.78125 10.667969-10.667969 10.667969zm0 0"/><path d="m373.332031 96c-5.886719 0-10.664062-4.777344-10.664062-10.667969 0-35.285156-28.714844-64-64-64-35.285157 0-64 28.714844-64 64 0 5.890625-4.78125 10.667969-10.667969 10.667969s-10.667969-4.777344-10.667969-10.667969c0-47.058593 38.273438-85.332031 85.335938-85.332031 47.058593 0 85.332031 38.273438 85.332031 85.332031 0 5.890625-4.777344 10.667969-10.667969 10.667969zm0 0"/><path d="m74.667969 341.332031c-5.890625 0-10.667969-4.777343-10.667969-10.664062v-245.335938c0-5.886719 4.777344-10.664062 10.667969-10.664062 5.886719 0 10.664062 4.777343 10.664062 10.664062v245.335938c0 5.886719-4.777343 10.664062-10.664062 10.664062zm0 0"/><path d="m224 341.332031c-5.886719 0-10.667969-4.777343-10.667969-10.664062v-245.335938c0-5.886719 4.78125-10.664062 10.667969-10.664062s10.667969 4.777343 10.667969 10.664062v245.335938c0 5.886719-4.78125 10.664062-10.667969 10.664062zm0 0"/><path d="m74.667969 96c-5.890625 0-10.667969-4.777344-10.667969-10.667969 0-35.453125-29.164062-64-53.332031-64-5.890625 0-10.667969-4.777343-10.667969-10.664062 0-5.890625 4.777344-10.667969 10.667969-10.667969 35.242187 0 74.664062 36.480469 74.664062 85.332031 0 5.890625-4.777343 10.667969-10.664062 10.667969zm0 0"/><path d="m501.332031 362.667969h-53.332031c-47.0625 0-85.332031-38.273438-85.332031-85.335938v-192c0-5.886719 4.777343-10.664062 10.664062-10.664062 5.890625 0 10.667969 4.777343 10.667969 10.664062v192c0 35.285157 28.714844 64 64 64h53.332031c5.890625 0 10.667969 4.78125 10.667969 10.667969s-4.777344 10.667969-10.667969 10.667969zm0 0"/><path d="m480 384c-2.730469 0-5.460938-1.046875-7.550781-3.113281-4.160157-4.160157-4.160157-10.925781 0-15.085938l13.78125-13.78125-13.78125-13.78125c-4.160157-4.160156-4.160157-10.921875 0-15.082031 4.160156-4.160156 10.921875-4.160156 15.082031 0l21.332031 21.335938c4.160157 4.160156 4.160157 10.921874 0 15.082031l-21.332031 21.332031c-2.070312 2.046875-4.800781 3.09375-7.53125 3.09375zm0 0"/></svg>