<svg height="511pt" viewBox="-74 0 511 511.09976" width="511pt" xmlns="http://www.w3.org/2000/svg"><path d="m181.257812 511.101562c-88.234374 0-160-71.765624-160-160 0-88.238281 71.765626-160 160-160 88.234376 0 160 71.785157 160 160 0 88.210938-71.789062 160-160 160zm0-298.667968c-76.460937 0-138.667968 62.207031-138.667968 138.667968 0 76.457032 62.207031 138.664063 138.667968 138.664063 76.457032 0 138.664063-62.207031 138.664063-138.664063 0-76.460937-62.207031-138.667968-138.664063-138.667968zm0 0"/><path d="m181.257812 201.765625c-70.59375 0-128-57.40625-128-128 0-26.089844-18.644531-48.191406-44.308593-52.566406-5.824219-.980469-9.730469-6.503907-8.75-12.308594.984375-5.800781 6.550781-9.578125 12.3125-8.722656 35.964843 6.121093 62.058593 37.074219 62.058593 73.597656 0 58.816406 47.847657 106.667969 106.664063 106.667969s106.667969-47.851563 106.667969-106.667969c0-36.585937 26.15625-67.5625 62.1875-73.621094 5.738281-.960937 11.304687 2.945313 12.285156 8.746094.984375 5.804687-2.941406 11.308594-8.746094 12.289063-25.726562 4.332031-44.394531 26.453124-44.394531 52.585937.023437 70.59375-57.40625 128-127.976563 128zm0 0"/></svg>