<svg height="512pt" viewBox="0 -64 512 512" width="512pt" xmlns="http://www.w3.org/2000/svg"><path d="m74.667969 96c-5.890625 0-10.667969-4.777344-10.667969-10.667969 0-35.453125-29.164062-64-53.332031-64-5.890625 0-10.667969-4.777343-10.667969-10.664062 0-5.890625 4.777344-10.667969 10.667969-10.667969 35.242187 0 74.664062 36.480469 74.664062 85.332031 0 5.890625-4.777343 10.667969-10.664062 10.667969zm0 0"/><path d="m224 96c-5.886719 0-10.667969-4.777344-10.667969-10.667969 0-35.285156-28.714843-64-64-64-35.285156 0-64 28.714844-64 64 0 5.890625-4.777343 10.667969-10.664062 10.667969-5.890625 0-10.667969-4.777344-10.667969-10.667969 0-47.058593 38.273438-85.332031 85.332031-85.332031 47.0625 0 85.335938 38.273438 85.335938 85.332031 0 5.890625-4.78125 10.667969-10.667969 10.667969zm0 0"/><path d="m373.332031 96c-5.886719 0-10.664062-4.777344-10.664062-10.667969 0-35.285156-28.714844-64-64-64-35.285157 0-64 28.714844-64 64 0 5.890625-4.78125 10.667969-10.667969 10.667969s-10.667969-4.777344-10.667969-10.667969c0-47.058593 38.273438-85.332031 85.335938-85.332031 47.058593 0 85.332031 38.273438 85.332031 85.332031 0 5.890625-4.777344 10.667969-10.667969 10.667969zm0 0"/><path d="m492.222656 160.449219c-1.941406 0-3.882812-.511719-5.628906-1.601563-4.992188-3.113281-6.550781-9.683594-3.4375-14.675781 4.992188-8.042969 7.511719-17.066406 7.511719-26.839844 0-29.394531-23.914063-53.332031-53.335938-53.332031-29.417969 0-53.332031 23.9375-53.332031 53.332031 0 5.890625-4.777344 10.667969-10.667969 10.667969-5.886719 0-10.664062-4.777344-10.664062-10.667969 0-41.171875 33.492187-74.664062 74.664062-74.664062 41.175781 0 74.667969 33.492187 74.667969 74.664062 0 13.804688-3.605469 26.625-10.710938 38.082031-2.023437 3.261719-5.503906 5.035157-9.066406 5.035157zm0 0"/><path d="m74.667969 341.332031c-5.890625 0-10.667969-4.777343-10.667969-10.664062v-245.335938c0-5.886719 4.777344-10.664062 10.667969-10.664062 5.886719 0 10.664062 4.777343 10.664062 10.664062v245.335938c0 5.886719-4.777343 10.664062-10.664062 10.664062zm0 0"/><path d="m224 341.332031c-5.886719 0-10.667969-4.777343-10.667969-10.664062v-245.335938c0-5.886719 4.78125-10.664062 10.667969-10.664062s10.667969 4.777343 10.667969 10.664062v245.335938c0 5.886719-4.78125 10.664062-10.667969 10.664062zm0 0"/><path d="m437.332031 384h-32c-23.53125 0-42.664062-19.136719-42.664062-42.667969v-256c0-5.886719 4.777343-10.664062 10.664062-10.664062 5.890625 0 10.667969 4.777343 10.667969 10.664062v256c0 11.777344 9.558594 21.335938 21.332031 21.335938h32c5.890625 0 10.667969 4.777343 10.667969 10.664062 0 5.890625-4.777344 10.667969-10.667969 10.667969zm0 0"/><path d="m334.613281 384h-25.28125c-5.886719 0-10.664062-4.777344-10.664062-10.667969 0-5.886719 4.777343-10.664062 10.664062-10.664062h25.28125c6.421875 0 12.417969-2.859375 16.511719-7.808594l132.054688-210.730469c3.113281-4.972656 9.769531-6.507812 14.699218-3.371094 4.992188 3.113282 6.503906 9.707032 3.367188 14.699219l-132.882813 211.839844c-8.917969 11.007813-20.949219 16.703125-33.75 16.703125zm0 0"/></svg>