<?xml version="1.0" encoding="utf-8"?>
<!-- Generator: Adobe Illustrator 23.0.6, SVG Export Plug-In . SVG Version: 6.00 Build 0)  -->
<svg version="1.1" id="Capa_1" xmlns="http://www.w3.org/2000/svg" xmlns:xlink="http://www.w3.org/1999/xlink" x="0px" y="0px"
	 viewBox="0 0 460.7 460.7" style="enable-background:new 0 0 460.7 460.7;" xml:space="preserve">
<style type="text/css">
	.st0{fill:none;stroke:#000000;stroke-width:12;stroke-linecap:round;stroke-linejoin:round;stroke-miterlimit:10;}
</style>
<path class="st0" d="M230.4,249L230.4,249c-71.1,0-128.7-57.6-128.7-128.7v-95c0-6.4,5.2-11.6,11.6-11.6h234.3
	c6.4,0,11.6,5.2,11.6,11.6v95C359.1,191.4,301.4,249,230.4,249z"/>
<path class="st0" d="M265.6,337h-70.5c-9,0-16.3-7.3-16.3-16.3l0,0c0-9,7.3-16.3,16.3-16.3h70.5c9,0,16.3,7.3,16.3,16.3l0,0
	C282,329.7,274.6,337,265.6,337z"/>
<path class="st0" d="M299.9,447H160.8c-9,0-16.3-7.3-16.3-16.3l0,0c0-9,7.3-16.3,16.3-16.3H300c9,0,16.3,7.3,16.3,16.3l0,0
	C316.3,439.7,309,447,299.9,447z"/>
<g>
	<line class="st0" x1="204.5" y1="254" x2="204.5" y2="304.4"/>
	<line class="st0" x1="256.2" y1="254" x2="256.2" y2="304.4"/>
</g>
<g>
	<path class="st0" d="M204.4,337c0,0,6.7,77.3-44.5,77.3"/>
	<path class="st0" d="M256.3,337c0,0-6.7,77.3,44.5,77.3"/>
</g>
<line class="st0" x1="101.6" y1="71.9" x2="239.4" y2="71.9"/>
<line class="st0" x1="291.4" y1="71.9" x2="359.1" y2="71.9"/>
</svg>
