<?xml version="1.0" encoding="utf-8"?>
<!-- Generator: Adobe Illustrator 23.0.6, SVG Export Plug-In . SVG Version: 6.00 Build 0)  -->
<svg version="1.1" id="Capa_1" xmlns="http://www.w3.org/2000/svg" xmlns:xlink="http://www.w3.org/1999/xlink" x="0px" y="0px"
	 viewBox="0 0 460.7 460.7" style="enable-background:new 0 0 460.7 460.7;" xml:space="preserve">
<style type="text/css">
	.st0{fill:none;stroke:#000000;stroke-width:12;stroke-linecap:round;stroke-linejoin:round;stroke-miterlimit:10;}
</style>
<g>
	<polyline class="st0" points="100,305.8 387.8,18 447,13.7 442.6,72.8 154.8,360.6 	"/>
	<g>
		<line class="st0" x1="39.1" y1="400.4" x2="94.1" y2="345.3"/>
		<line class="st0" x1="115.3" y1="366.5" x2="60.2" y2="421.5"/>
	</g>
	<path class="st0" d="M136.8,384.6L76,323.8c-5.7-5.7-5.7-14.9,0-20.6l0,0c5.7-5.7,14.9-5.7,20.6,0l60.8,60.8
		c5.7,5.7,5.7,14.9,0,20.6l0,0C151.7,390.3,142.5,390.3,136.8,384.6z"/>
	<line class="st0" x1="127" y1="333.6" x2="189.4" y2="271.2"/>
	<circle class="st0" cx="36.7" cy="423.9" r="23.1"/>
</g>
</svg>
