<?xml version="1.0" encoding="utf-8"?>
<!-- Generator: Adobe Illustrator 23.0.6, SVG Export Plug-In . SVG Version: 6.00 Build 0)  -->
<svg version="1.1" id="Capa_1" xmlns="http://www.w3.org/2000/svg" xmlns:xlink="http://www.w3.org/1999/xlink" x="0px" y="0px"
	 viewBox="0 0 460.7 460.7" style="enable-background:new 0 0 460.7 460.7;" xml:space="preserve">
<style type="text/css">
	.st0{fill:none;stroke:#000000;stroke-width:12;stroke-linecap:round;stroke-linejoin:round;stroke-miterlimit:10;}
</style>
<g>
	<path class="st0" d="M63.4,442.9l-43.1-43.1c0,0,63.3-50.1,115.6-114l42.3,42.3C178.2,328.1,96.3,399,63.4,442.9z"/>
	<path class="st0" d="M142.8,292.7c0,0,34.2-30.7,44.2-59.5l8.9,8.9L423.6,26.6c0,0,9.2-9.4,16.8-1.8s0.7,15.7-0.8,17.4
		S290.4,197.3,290.4,197.3l10.5,10.1c0,0-41.7,26.4-60,45.2s-66.3,71.9-66.3,71.9"/>
	<line class="st0" x1="195.8" y1="242.1" x2="204.3" y2="250.5"/>
	<path class="st0" d="M122.2,302"/>
	<path class="st0" d="M144.4,324.2"/>
	<line class="st0" x1="93.3" y1="407.3" x2="76.8" y2="390.8"/>
	<line class="st0" x1="290.4" y1="197.2" x2="282.2" y2="189.1"/>
</g>
</svg>
